<?xml version="1.0" standalone="no"?>
<!DOCTYPE svg PUBLIC "-//W3C//DTD SVG 20010904//EN"
 "http://www.w3.org/TR/2001/REC-SVG-20010904/DTD/svg10.dtd">
<svg version="1.0" xmlns="http://www.w3.org/2000/svg"
 width="512.000000pt" height="512.000000pt" viewBox="0 0 512.000000 512.000000"
 preserveAspectRatio="xMidYMid meet">
<metadata>
Created by potrace 1.16, written by Peter Selinger 2001-2019
</metadata>
<g transform="translate(0.000000,512.000000) scale(0.100000,-0.100000)"
fill="currentColor" stroke="none">
<path d="M3313 4885 c-72 -36 -106 -89 -111 -170 -7 -111 -5 -114 279 -400
l259 -260 -780 -780 c-599 -599 -786 -791 -805 -829 -96 -191 100 -387 291
-291 38 19 230 206 829 805 l780 780 260 -259 c286 -284 289 -286 400 -279 81
5 134 39 170 111 l25 51 0 688 c0 752 2 728 -58 792 -15 16 -45 37 -67 47 -38
17 -80 19 -731 19 l-690 0 -51 -25z"/>
<path d="M690 4464 c-176 -46 -334 -175 -414 -338 -71 -143 -67 -30 -64 -1808
l3 -1603 22 -58 c42 -111 87 -181 163 -257 87 -87 179 -140 296 -170 75 -19
117 -20 1648 -20 1323 0 1582 3 1638 15 181 38 351 172 433 340 68 137 65 91
65 1122 0 905 -1 935 -19 972 -75 147 -279 159 -376 23 l-30 -44 -5 -921 c-5
-848 -6 -925 -22 -953 -25 -45 -95 -102 -137 -111 -20 -5 -722 -8 -1561 -8
-1470 0 -1526 1 -1560 19 -49 26 -79 55 -103 101 l-22 40 0 1525 c0 839 3
1541 8 1561 9 42 66 112 111 137 28 16 105 17 953 22 l921 5 44 30 c135 96
123 301 -23 375 -37 20 -62 20 -976 19 -784 0 -947 -3 -993 -15z"/>
</g>
</svg>
