<?xml version="1.0" standalone="no"?><svg xmlns="http://www.w3.org/2000/svg" viewBox="0 0 1440 320"><path fill="currentColor" fill-opacity="1" d="M0,288L40,256C80,224,160,160,240,154.7C320,149,400,203,480,234.7C560,267,640,277,720,266.7C800,256,880,224,960,181.3C1040,139,1120,85,1200,101.3C1280,117,1360,203,1400,245.3L1440,288L1440,320L1400,320C1360,320,1280,320,1200,320C1120,320,1040,320,960,320C880,320,800,320,720,320C640,320,560,320,480,320C400,320,320,320,240,320C160,320,80,320,40,320L0,320Z"></path></svg>